# xmcd
#
# Track frame offsets: 
#        150
#        15338
#        32311
#        50304
#        75583
#        90328
#        104382
#        123787
#        133394
#        149820
#        163597
#        185060
#        201510
#        213417
#
# Disc length: 2985 seconds
#
# Revision: 0
# Processed by: cddbd v1.5.2PL0 Copyright (c) Steve Scherf et al.
# Submitted via: ExactAudioCopy v0.99pb4
#
DISCID=be0ba70e
DTITLE=Chris Bell and 100% Blues - Real Bluesman
DYEAR=2005
DGENRE=Blues
TTITLE0=Bad News
TTITLE1=Forgive and Forget
TTITLE2=My Cadillac 
TTITLE3=Money Doesn't Grow On Trees
TTITLE4=Out There In The Distance
TTITLE5=Travellin' Shoes
TTITLE6=Real Bluesman
TTITLE7=Cool Cat
TTITLE8=It's A Shame
TTITLE9=Blues Highway
TTITLE10=24 Hours A Day
TTITLE11=That Ain't Right
TTITLE12=Get Up!
TTITLE13=Cotton Pickin' Blues
EXTD=
EXTT0=
EXTT1=
EXTT2=
EXTT3=
EXTT4=
EXTT5=
EXTT6=
EXTT7=
EXTT8=
EXTT9=
EXTT10=
EXTT11=
EXTT12=
EXTT13=
PLAYORDER=
